<?xml version="1.0" ?><svg viewBox="2608 917 120 120" xmlns="http://www.w3.org/2000/svg"><defs><style>
      .cls-1 {
        fill: #b92b27;
      }

      .cls-2 {
        fill: #fff;
      }
    </style></defs><g data-name="Group 56" id="Group_56" transform="translate(2383 785)"><circle class="cls-1" cx="60" cy="60" data-name="Ellipse 45" id="Ellipse_45" r="60" transform="translate(225 132)"/><g data-name="Group 55" id="Group_55" transform="translate(3.5 4.5)"><path class="cls-2" d="M34.212.5C52.831.5,67.924,15.191,67.924,33.313S52.831,66.127,34.212,66.127.5,51.436.5,33.313,15.593.5,34.212.5Z" data-name="Path 151" id="Path_151" transform="translate(245 150)"/><path class="cls-1" d="M18.005.9c5.942,0,11.867,2.427,14.474,7.462s3.281,12.528,3.281,18.25c0,6.027-.132,12.044-2.562,16.721-3.118,6.009-9.456,9.8-15.193,9.8-5.217,0-9.349-.629-13.575-6.563S.25,33.408.25,26.611c0-6.143.045-13.305,4.18-19.059S12.347.9,18.005.9Z" data-name="Path 149" id="Path_149" transform="translate(261.207 156.253)"/><path class="cls-2" d="M2337.818,160l-1.618-4.135s4.225-3.146,11.417-2.967,10.7,3.956,10.7,3.956a76.083,76.083,0,0,1,6.113,7.641,29.533,29.533,0,0,1,3.326,6.563s2.877,5.3,7.462,5.3,5.034-4.765,5.034-4.765h4.945s.18,7.821-4.945,12.136-12.5,3.146-12.5,3.146a14.663,14.663,0,0,1-6.563-2.877,26.15,26.15,0,0,1-5.3-6.742s-2.248-4.562-4.5-8.271-4.225-6.473-4.225-6.473a14.235,14.235,0,0,0-4.585-2.517A10.552,10.552,0,0,0,2337.818,160Z" data-name="Path 150" id="Path_150" transform="translate(-2067.596 38.415)"/></g></g></svg>